<mxfile host="65bd71144e">
    <diagram id="5jYTa0V4WPTeIMoKFk3b" name="Page-1">
        <mxGraphModel dx="526" dy="388" grid="1" gridSize="10" guides="1" tooltips="1" connect="1" arrows="1" fold="1" page="1" pageScale="1" pageWidth="827" pageHeight="1169" math="0" shadow="0">
            <root>
                <mxCell id="0"/>
                <mxCell id="1" parent="0"/>
                <mxCell id="2" value="Start" style="ellipse;whiteSpace=wrap;html=1;" parent="1" vertex="1">
                    <mxGeometry x="40" y="40" width="120" height="60" as="geometry"/>
                </mxCell>
                <mxCell id="3" value="กำหนด seed สำหรับสุ่มตัวเลข" style="rounded=1;whiteSpace=wrap;html=1;" parent="1" vertex="1">
                    <mxGeometry x="200" y="40" width="200" height="60" as="geometry"/>
                </mxCell>
                <mxCell id="4" style="edgeStyle=orthogonalEdgeStyle;endArrow=block;" parent="1" source="2" target="3" edge="1">
                    <mxGeometry relative="1" as="geometry"/>
                </mxCell>
                <mxCell id="5" value="เริ่มลูปหลักของโปรแกรม" style="rounded=0;whiteSpace=wrap;html=1;" parent="1" vertex="1">
                    <mxGeometry x="440" y="40" width="200" height="60" as="geometry"/>
                </mxCell>
                <mxCell id="6" style="edgeStyle=orthogonalEdgeStyle;endArrow=block;" parent="1" source="3" target="5" edge="1">
                    <mxGeometry relative="1" as="geometry"/>
                </mxCell>
                <mxCell id="7" value="รับคำสั่งจากผู้ใช้ (1=เล่น, -1=ออก)" style="shape=parallelogram;whiteSpace=wrap;html=1;" parent="1" vertex="1">
                    <mxGeometry x="680" y="40" width="240" height="60" as="geometry"/>
                </mxCell>
                <mxCell id="8" style="edgeStyle=orthogonalEdgeStyle;endArrow=block;" parent="1" source="5" target="7" edge="1">
                    <mxGeometry relative="1" as="geometry"/>
                </mxCell>
                <mxCell id="9" value="รับค่าคำสั่งสำเร็จหรือไม่" style="rhombus;whiteSpace=wrap;html=1;" parent="1" vertex="1">
                    <mxGeometry x="960" y="40" width="160" height="80" as="geometry"/>
                </mxCell>
                <mxCell id="10" style="edgeStyle=orthogonalEdgeStyle;endArrow=block;" parent="1" source="7" target="9" edge="1">
                    <mxGeometry relative="1" as="geometry"/>
                </mxCell>
                <mxCell id="11" value="True" style="edgeStyle=orthogonalEdgeStyle;endArrow=block;" parent="1" source="9" target="12" edge="1">
                    <mxGeometry relative="1" as="geometry"/>
                </mxCell>
                <mxCell id="13" value="False" style="edgeStyle=orthogonalEdgeStyle;endArrow=block;" parent="1" source="9" target="14" edge="1">
                    <mxGeometry relative="1" as="geometry"/>
                </mxCell>
                <mxCell id="24" style="edgeStyle=none;html=1;exitX=0.5;exitY=0;exitDx=0;exitDy=0;" edge="1" parent="1" source="14">
                    <mxGeometry relative="1" as="geometry">
                        <mxPoint x="1260" y="10" as="targetPoint"/>
                    </mxGeometry>
                </mxCell>
                <mxCell id="14" value="ล้าง buffer และแจ้งเตือน" style="rounded=0;whiteSpace=wrap;html=1;" parent="1" vertex="1">
                    <mxGeometry x="1160" y="40" width="200" height="60" as="geometry"/>
                </mxCell>
                <mxCell id="15" value="กลับไปลูปหลัก" style="edgeStyle=orthogonalEdgeStyle;endArrow=block;entryX=0.5;entryY=0;entryDx=0;entryDy=0;" parent="1" target="5" edge="1">
                    <mxGeometry relative="1" as="geometry">
                        <mxPoint x="1260" y="10" as="sourcePoint"/>
                        <mxPoint x="540" y="20" as="targetPoint"/>
                    </mxGeometry>
                </mxCell>
                <mxCell id="12" value="คำสั่งเป็น -1 หรือไม่" style="rhombus;whiteSpace=wrap;html=1;" parent="1" vertex="1">
                    <mxGeometry x="960" y="160" width="160" height="80" as="geometry"/>
                </mxCell>
                <mxCell id="16" value="True" style="edgeStyle=orthogonalEdgeStyle;endArrow=block;" parent="1" source="12" target="17" edge="1">
                    <mxGeometry relative="1" as="geometry"/>
                </mxCell>
                <mxCell id="17" value="แสดงข้อความ &#39;แล้วพบกันใหม่&#39;" style="shape=parallelogram;whiteSpace=wrap;html=1;" parent="1" vertex="1">
                    <mxGeometry x="1160" y="160" width="200" height="60" as="geometry"/>
                </mxCell>
                <mxCell id="18" value="Stop" style="ellipse;whiteSpace=wrap;html=1;" parent="1" vertex="1">
                    <mxGeometry x="1400" y="160" width="120" height="60" as="geometry"/>
                </mxCell>
                <mxCell id="19" style="edgeStyle=orthogonalEdgeStyle;endArrow=block;" parent="1" source="17" target="18" edge="1">
                    <mxGeometry relative="1" as="geometry"/>
                </mxCell>
                <mxCell id="20" value="False" style="edgeStyle=orthogonalEdgeStyle;endArrow=block;" parent="1" source="12" target="21" edge="1">
                    <mxGeometry relative="1" as="geometry"/>
                </mxCell>
                <mxCell id="21" value="คำสั่งเป็น 1 หรือไม่" style="rhombus;whiteSpace=wrap;html=1;" parent="1" vertex="1">
                    <mxGeometry x="960" y="280" width="160" height="80" as="geometry"/>
                </mxCell>
                <mxCell id="22" value="True" style="edgeStyle=orthogonalEdgeStyle;endArrow=block;" parent="1" source="21" target="23" edge="1">
                    <mxGeometry relative="1" as="geometry"/>
                </mxCell>
                <mxCell id="23" value="กำหนดค่าเริ่มต้น score, low, high และสุ่ม secret" style="rounded=0;whiteSpace=wrap;html=1;" parent="1" vertex="1">
                    <mxGeometry x="1160" y="280" width="280" height="60" as="geometry"/>
                </mxCell>
            </root>
        </mxGraphModel>
    </diagram>
</mxfile>